<?xml version="1.0" encoding="UTF-8"?>
<svg width="150px" height="40px" viewBox="0 0 150 40" version="1.1" xmlns="http://www.w3.org/2000/svg" xmlns:xlink="http://www.w3.org/1999/xlink">
    <title>FF37AB4F-096F-4664-ADAF-4797BCBC0224</title>
    <g id="Page-1" stroke="none" stroke-width="1" fill="none" fill-rule="evenodd">
        <g id="Ranking-QS_WUR-Logo---Desktop" transform="translate(-1085.000000, -73.000000)" fill-rule="nonzero">
            <g id="Hero-Banner" transform="translate(0.000000, 60.000000)">
                <g id="WUR-New-Logo" transform="translate(1085.000000, 13.000000)">
                    <polygon id="Path" fill="#1D1D1B" points="45.6814815 2.00740741 47.5037037 2.00740741 49.1111111 7.25185185 50.8444444 1.98518519 52.3259259 1.98518519 54.0740741 7.25185185 55.6740741 2.00740741 57.4592593 2.00740741 54.8148148 9.80740741 53.3333333 9.80740741 51.5555556 4.74074074 49.8074074 9.80740741 48.3259259 9.80740741"></polygon>
                    <path d="M57.6148148,5.92592593 L57.6148148,5.92592593 C57.7083776,3.7212353 59.5229546,1.98203223 61.7296296,1.98203223 C63.9363047,1.98203223 65.7508816,3.7212353 65.8444444,5.92592593 L65.8444444,5.92592593 C65.7508816,8.13061655 63.9363047,9.86981963 61.7296296,9.86981963 C59.5229546,9.86981963 57.7083776,8.13061655 57.6148148,5.92592593 L57.6148148,5.92592593 Z M64.0592593,5.92592593 L64.0592593,5.92592593 C64.0833821,5.28918819 63.847701,4.66998656 63.4063072,4.21043418 C62.9649134,3.75088181 62.3557111,3.49044218 61.7185185,3.48886835 C61.0858908,3.48622375 60.4798262,3.74300932 60.0416783,4.19935504 C59.6035304,4.65570076 59.371607,5.2717078 59.4,5.9037037 L59.4,5.9037037 C59.3779333,6.53918221 59.6145295,7.15644198 60.0556968,7.61436253 C60.4968642,8.07228309 61.1048813,8.33171047 61.7407407,8.33335254 C62.3720252,8.33590515 62.9768855,8.08012768 63.4148013,7.62542284 C63.852717,7.170718 64.0855682,6.55666718 64.0592593,5.92592593 Z" id="Shape" fill="#1D1D1B"></path>
                    <path d="M66.9407407,2.00740741 L70.4740741,2.00740741 C71.2894768,1.96514502 72.0884444,2.24744691 72.6962963,2.79259259 C73.1458678,3.26962321 73.3836156,3.90806957 73.3555556,4.56296296 L73.3555556,4.56296296 C73.4080773,5.64591792 72.7280024,6.62959761 71.6962963,6.96296296 L73.5925926,9.72592593 L71.6,9.72592593 L69.9407407,7.25185185 L68.6074074,7.25185185 L68.6074074,9.72592593 L66.9037037,9.72592593 L66.9407407,2.00740741 Z M70.3703704,5.77037037 C71.2,5.77037037 71.6814815,5.32592593 71.6814815,4.67407407 L71.6814815,4.67407407 C71.6814815,3.93333333 71.1703704,3.57037037 70.3407407,3.57037037 L68.6518519,3.57037037 L68.6518519,5.79259259 L70.3703704,5.77037037 Z" id="Shape" fill="#1D1D1B"></path>
                    <polygon id="Path" fill="#1D1D1B" points="76.362963 2.00740741 76.362963 8.2 80.2222222 8.2 80.2222222 9.74814815 74.6592593 9.74814815 74.6592593 2.00740741"></polygon>
                    <path d="M81.0740741,2.00740741 L84.0888889,2.00740741 C85.1540343,1.93774845 86.2004609,2.31235629 86.9794029,3.04217578 C87.7583448,3.77199526 88.2002266,4.79183853 88.2000077,5.85925926 L88.2000077,5.85925926 C88.202139,6.92855538 87.7613781,7.95099802 86.9824679,8.68359459 C86.2035578,9.41619117 85.1560481,9.79352738 84.0888889,9.72592593 L81.0740741,9.72592593 L81.0740741,2.00740741 Z M84.0888889,8.21481481 C84.7090238,8.24616491 85.3139916,8.01663073 85.7572544,7.58181099 C86.2005173,7.14699124 86.441642,6.54654903 86.4222222,5.92592593 L86.4222222,5.92592593 C86.4545014,5.29774692 86.2190521,4.68531405 85.7742764,4.24053837 C85.3295008,3.7957627 84.7170679,3.56031341 84.0888889,3.59259259 L82.7703704,3.59259259 L82.7703704,8.25925926 L84.0888889,8.21481481 Z" id="Shape" fill="#1D1D1B"></path>
                    <path d="M46.6666667,20.5703704 L46.6666667,16.1259259 L48.3703704,16.1259259 L48.3703704,20.5037037 C48.3703704,21.762963 49,22.4148148 50.037037,22.4148148 C51.0740741,22.4148148 51.7111111,21.7851852 51.7111111,20.562963 L51.7111111,16.1185185 L53.4148148,16.1185185 L53.4148148,20.4888889 C53.4148148,22.8296296 52.0962963,23.9777778 50.0148148,23.9777778 C47.9333333,23.9777778 46.6666667,22.8518519 46.6666667,20.5703704 Z" id="Path" fill="#1D1D1B"></path>
                    <polygon id="Path" fill="#1D1D1B" points="54.7407407 16.1481481 56.2962963 16.1481481 59.9185185 20.9111111 59.9185185 16.1481481 61.6 16.1481481 61.6 23.8888889 60.1185185 23.8888889 56.3703704 18.9703704 56.3703704 23.8888889 54.7407407 23.8888889"></polygon>
                    <polygon id="Path" fill="#1D1D1B" points="63.0740741 16.1481481 64.7777778 16.1481481 64.7777778 23.8888889 63.0740741 23.8888889"></polygon>
                    <polygon id="Path" fill="#1D1D1B" points="65.5703704 16.1481481 67.4518519 16.1481481 69.4740741 21.6 71.4962963 16.1481481 73.3333333 16.1481481 70.2074074 23.9481481 68.7259259 23.9481481"></polygon>
                    <polygon id="Path" fill="#1D1D1B" points="74.1259259 16.1481481 80 16.1481481 80 17.6666667 75.8592593 17.6666667 75.8592593 19.2592593 79.5037037 19.2592593 79.5037037 20.7407407 75.8592593 20.7407407 75.8592593 22.3703704 80 22.3703704 80 23.8518519 74.0740741 23.8518519"></polygon>
                    <path d="M81.2148148,16.1481481 L84.7555556,16.1481481 C85.5715522,16.1017515 86.3720611,16.384598 86.9777778,16.9333333 C87.4330108,17.4072941 87.6739777,18.0471949 87.6444444,18.7037037 L87.6444444,18.7037037 C87.6969661,19.7866587 87.0168913,20.7703383 85.9851852,21.1037037 L87.8740741,23.8666667 L85.9259259,23.8666667 L84.2666667,21.3925926 L82.9259259,21.3925926 L82.9259259,23.8666667 L81.2222222,23.8666667 L81.2148148,16.1481481 Z M84.6444444,19.9111111 C85.4740741,19.9111111 85.9481481,19.4666667 85.9481481,18.8148148 L85.9481481,18.8148148 C85.9481481,18.0740741 85.437037,17.7111111 84.6074074,17.7111111 L82.9185185,17.7111111 L82.9185185,19.9333333 L84.6444444,19.9111111 Z" id="Shape" fill="#1D1D1B"></path>
                    <path d="M88.5259259,22.762963 L89.5333333,21.5555556 C90.1659277,22.1408535 90.9902778,22.4753341 91.8518519,22.4962963 C92.5481481,22.4962963 92.9703704,22.2222222 92.9703704,21.7555556 L92.9703704,21.7555556 C92.9703704,21.3259259 92.7037037,21.1037037 91.4074074,20.7777778 C89.8518519,20.3777778 88.8444444,19.9481481 88.8444444,18.4074074 L88.8444444,18.4074074 C88.8444444,17.0074074 89.9703704,16.0740741 91.5555556,16.0740741 C92.5937262,16.0538424 93.6068037,16.3941526 94.4222222,17.037037 L93.5333333,18.3185185 C92.9540566,17.8750937 92.254387,17.616913 91.5259259,17.5777778 C90.8740741,17.5777778 90.5259259,17.8740741 90.5259259,18.2518519 L90.5259259,18.2518519 C90.5259259,18.762963 90.8592593,18.9259259 92.2,19.2740741 C93.7703704,19.6814815 94.6518519,20.2444444 94.6518519,21.5925926 L94.6518519,21.5925926 C94.6518519,23.1259259 93.4814815,23.9925926 91.8074074,23.9925926 C90.5995884,24.0001868 89.4313288,23.5624191 88.5259259,22.762963 Z" id="Path" fill="#1D1D1B"></path>
                    <polygon id="Path" fill="#1D1D1B" points="95.7703704 16.1481481 97.4740741 16.1481481 97.4740741 23.8888889 95.7703704 23.8888889"></polygon>
                    <polygon id="Path" fill="#1D1D1B" points="100.681481 17.7185185 98.3259259 17.7185185 98.3259259 16.1481481 104.740741 16.1481481 104.740741 17.7185185 102.385185 17.7185185 102.385185 23.8888889 100.681481 23.8888889"></polygon>
                    <polygon id="Path" fill="#1D1D1B" points="108.148148 20.837037 105.185185 16.1481481 107.177778 16.1481481 109.022222 19.2592593 110.903704 16.1481481 112.837037 16.1481481 109.874074 20.8074074 109.874074 23.8888889 108.148148 23.8888889"></polygon>
                    <path d="M46.6666667,30.2962963 L50.2074074,30.2962963 C51.0228101,30.2540339 51.8217778,30.5363358 52.4296296,31.0814815 C52.8818985,31.5573064 53.122372,32.1958972 53.0962963,32.8518519 L53.0962963,32.8518519 C53.148818,33.9348068 52.4687432,34.9184865 51.437037,35.2518519 L53.3333333,38.037037 L51.362963,38.037037 L49.7037037,35.5555556 L48.362963,35.5555556 L48.362963,38.0296296 L46.6666667,38.0296296 L46.6666667,30.2962963 Z M50.0888889,34.0740741 C50.9185185,34.0740741 51.3925926,33.6296296 51.3925926,32.9777778 L51.3925926,32.9777778 C51.3925926,32.237037 50.8814815,31.8740741 50.0592593,31.8740741 L48.362963,31.8740741 L48.362963,34.0962963 L50.0888889,34.0740741 Z" id="Shape" fill="#1D1D1B"></path>
                    <path d="M57.037037,30.2444444 L58.6074074,30.2444444 L61.9259259,38.037037 L60.1481481,38.037037 L59.4074074,36.3037037 L56.162963,36.3037037 L55.4222222,38.037037 L53.7185185,38.037037 L57.037037,30.2444444 Z M58.8222222,34.8148148 L57.7777778,32.2888889 L56.7703704,34.8148148 L58.8222222,34.8148148 Z" id="Shape" fill="#1D1D1B"></path>
                    <polygon id="Path" fill="#1D1D1B" points="62.7037037 30.2962963 64.2740741 30.2962963 67.9037037 35.0666667 67.9037037 30.2962963 69.5851852 30.2962963 69.5851852 38.037037 68.1037037 38.037037 64.3555556 33.1185185 64.3555556 38.037037 62.7037037 38.037037"></polygon>
                    <polygon id="Path" fill="#1D1D1B" points="72.7407407 30.2962963 72.7407407 33.6814815 75.8814815 30.2962963 77.9407407 30.2962963 74.8148148 33.5851852 78.1111111 38.0296296 76.0666667 38.0296296 73.6666667 34.7407407 72.7703704 35.6666667 72.7703704 38.0296296 71.0666667 38.0296296 71.0666667 30.2962963"></polygon>
                    <polygon id="Path" fill="#1D1D1B" points="78.8814815 30.2962963 80.5851852 30.2962963 80.5851852 38.037037 78.8814815 38.037037"></polygon>
                    <polygon id="Path" fill="#1D1D1B" points="82.037037 30.2962963 83.6074074 30.2962963 87.237037 35.0666667 87.237037 30.2962963 88.8888889 30.2962963 88.8888889 38.037037 87.4074074 38.037037 83.7037037 33.1185185 83.7037037 38.037037 82.0222222 38.037037"></polygon>
                    <path d="M90.0296296,34.1925926 L90.0296296,34.1925926 C90.0213998,33.1201849 90.4473479,32.0900577 91.2105445,31.3366277 C91.9737412,30.5831977 93.0092688,30.170552 94.0814815,30.1925926 C95.196333,30.1299752 96.2907155,30.5107457 97.1259259,31.2518519 L96.0518519,32.5481481 C95.509755,32.0267532 94.7815353,31.7440013 94.0296296,31.762963 C92.7516566,31.8151043 91.7573076,32.8923157 91.8074074,34.1703704 L91.8074074,34.1703704 C91.7681612,34.8124979 91.9983393,35.4419252 92.4425736,35.9072465 C92.8868079,36.3725679 93.5048917,36.6316682 94.1481481,36.6222222 C94.7185195,36.6387909 95.2800312,36.4783589 95.7555556,36.162963 L95.7555556,35.0518519 L94.0740741,35.0518519 L94.0740741,33.5703704 L97.4296296,33.5703704 L97.4296296,36.9333333 C96.5015123,37.744664 95.3067304,38.1851245 94.0740741,38.1703704 C92.9991588,38.218103 91.9528112,37.8166441 91.1856862,37.0621639 C90.4185611,36.3076838 89.999768,35.2681527 90.0296296,34.1925926 Z" id="Path" fill="#1D1D1B"></path>
                    <path d="M98.2148148,36.9111111 L99.2592593,35.7037037 C99.8899526,36.2873369 100.711368,36.6216953 101.57037,36.6444444 C102.266667,36.6444444 102.688889,36.3703704 102.688889,35.9037037 L102.688889,35.9037037 C102.688889,35.4740741 102.422222,35.2518519 101.125926,34.9185185 C99.5703704,34.5185185 98.562963,34.0888889 98.562963,32.5481481 L98.562963,32.5481481 C98.562963,31.1407407 99.6888889,30.2148148 101.274074,30.2148148 C102.317168,30.1932994 103.334584,30.5394307 104.148148,31.1925926 L103.259259,32.4814815 C102.681819,32.0347314 101.981076,31.7761546 101.251852,31.7407407 C100.6,31.7407407 100.251852,32.037037 100.251852,32.4148148 L100.251852,32.4148148 C100.251852,32.9185185 100.585185,33.0888889 101.925926,33.4296296 C103.496296,33.837037 104.377778,34.4 104.377778,35.7481481 L104.377778,35.7481481 C104.377778,37.2888889 103.207407,38.1481481 101.533333,38.1481481 C100.311806,38.1628868 99.1286346,37.7218384 98.2148148,36.9111111 L98.2148148,36.9111111 Z" id="Path" fill="#1D1D1B"></path>
                    <rect id="Rectangle" fill="#F7A600" x="0.00740740741" y="0.00740740741" width="39.9925926" height="39.9925926"></rect>
                    <path d="M29.0592593,17.6592593 C26.362963,16.9703704 25.6888889,16.637037 25.6888889,15.6148148 L25.6888889,15.5555556 C25.6888889,14.8148148 26.3851852,14.1925926 27.6962963,14.1925926 C29.1743818,14.2823532 30.5901687,14.8197321 31.7555556,15.7333333 L33.5333333,13.1481481 C31.894155,11.8291619 29.8443838,11.1266828 27.7407407,11.162963 C24.5555556,11.162963 22.2814815,13.037037 22.2814815,15.8666667 L22.2814815,15.9111111 C22.2814815,19.0074074 24.3111111,19.8740741 27.4666667,20.6740741 C30.0740741,21.3481481 30.6074074,21.7925926 30.6074074,22.6592593 L30.6074074,22.7037037 C30.6074074,23.6148148 29.762963,24.1851852 28.3851852,24.1851852 C26.6423373,24.1683976 24.9701885,23.4937173 23.7037037,22.2962963 L23.6222222,22.2222222 C23.6222222,22.2222222 23.4,22.0296296 23.2518519,21.8814815 L23.2518519,21.8814815 L23.2518519,21.8814815 C23.1881422,21.8264968 23.1309756,21.7643592 23.0814815,21.6962963 L23.0814815,21.6962963 C22.7902129,22.7786785 22.3113527,23.8015841 21.6666667,24.7185185 L21.6666667,24.7185185 L22.0592593,25.0444444 L22.0592593,25.0444444 L22.0592593,25.0444444 C23.8256613,26.4432272 26.0134999,27.2029659 28.2666667,27.2000087 C31.6296296,27.2000087 33.9926156,25.4592593 33.9926156,22.362963 L33.9926156,22.3185185 C34,19.6222222 32.2222222,18.5185185 29.0592593,17.6592593 Z" id="Path" fill="#FFFFFF"></path>
                    <path d="M25.5185185,29.7111111 L17.1185185,22.8888889 C15.3882416,24.4280085 12.8171023,24.5468765 10.9521976,23.1739679 C9.08729284,21.8010593 8.43704447,19.310665 9.39271764,17.2012963 C10.3483908,15.0919276 12.6494441,13.9386535 14.9112956,14.4354182 C17.1731471,14.9321828 18.7791572,16.9435552 18.762963,19.2592593 C18.7640733,20.1474515 18.5206077,21.018802 18.0592593,21.7777778 L20.5111111,23.8074074 C22.8040091,20.4545043 22.2404807,15.9187801 19.1968143,13.2289037 C16.1531479,10.5390273 11.582551,10.5374071 8.53697833,13.225125 C5.49140566,15.9128429 4.92466164,20.4481664 7.21518199,23.8026942 C9.50570234,27.157222 13.9361479,28.2803919 17.5481481,26.4222222 L25.2592593,30.0814815 L25.5185185,29.7111111 Z" id="Path" fill="#FFFFFF"></path>
                    <rect id="Rectangle" fill="#F7A600" x="93.9259259" y="0" width="55.2074074" height="11.1111111"></rect>
                    <rect id="Rectangle" fill="#F7A600" x="118.733333" y="14.4444444" width="30.3925926" height="11.1111111"></rect>
                    <rect id="Rectangle" fill="#F7A600" x="110.451852" y="28.8888889" width="38.6814815" height="11.1111111"></rect>
                </g>
            </g>
        </g>
    </g>
</svg>